<svg width="267" height="417" viewBox="0 0 267 417" fill="none" xmlns="http://www.w3.org/2000/svg">
<g clip-path="url(#clip0)">
<rect y="416.883" width="416.883" height="266.532" rx="8.20098" transform="rotate(-90 0 416.883)" fill="#020302"/>
<g opacity="0.6">
<path d="M210.759 87.7582C212.156 86.3612 212.941 84.4664 212.941 82.4908C212.941 80.5151 212.156 78.6204 210.759 77.2234" stroke="white" stroke-width="3.41708" stroke-linecap="round" stroke-linejoin="round"/>
<path d="M216.49 91.2539C218.475 88.7634 219.555 85.6733 219.554 82.489C219.554 79.3047 218.473 76.2148 216.488 73.7248" stroke="white" stroke-width="3.41708" stroke-linecap="round" stroke-linejoin="round"/>
<path d="M221.543 94.7011C224.201 91.2065 225.646 86.94 225.659 82.5494C225.671 78.1589 224.251 73.884 221.613 70.3741" stroke="white" stroke-width="3.41708" stroke-linecap="round" stroke-linejoin="round"/>
<path d="M227.185 66.786C230.597 71.4988 232.381 77.1943 232.268 83.0113C232.155 88.8282 230.151 94.4501 226.559 99.0267" stroke="white" stroke-width="3.41708" stroke-linecap="round" stroke-linejoin="round"/>
</g>
<rect x="155.658" y="111.578" width="57.9194" height="42.0205" rx="8.54269" transform="rotate(-90 155.658 111.578)" fill="#D8D8D8" stroke="url(#paint0_linear)" stroke-width="0.683415"/>
<mask id="mask0" mask-type="alpha" maskUnits="userSpaceOnUse" x="156" y="54" width="42" height="58">
<rect x="156.342" y="110.895" width="56.5526" height="40.6537" rx="7.85928" transform="rotate(-90 156.342 110.895)" fill="#8C8C8A" stroke="black" stroke-width="0.683415"/>
</mask>
<g mask="url(#mask0)">
<path opacity="0.5" fill-rule="evenodd" clip-rule="evenodd" d="M157.354 81.2719C156.335 81.7724 156.335 83.2253 157.354 83.7258L167.829 88.8688C167.829 88.8688 175.524 86.3208 184.3 88.8688L195.902 83.7493C196.989 83.2698 196.989 81.7279 195.902 81.2483L184.3 76.1288C184.3 76.1288 179.53 78.6768 167.829 76.1288L157.354 81.2719Z" stroke="#8C8C8A" stroke-width="0.88844" stroke-linejoin="bevel"/>
<path opacity="0.5" d="M167.773 111.801L167.773 89.0307" stroke="#8C8C8A" stroke-width="0.88844" stroke-linejoin="bevel"/>
<path opacity="0.5" d="M167.773 76.6693L167.773 53.2482" stroke="#8C8C8A" stroke-width="0.88844" stroke-linejoin="bevel"/>
<path opacity="0.5" d="M184.174 111.8L184.174 89.0298" stroke="#8C8C8A" stroke-width="0.88844" stroke-linejoin="bevel"/>
<path opacity="0.5" d="M184.174 76.6696L184.174 53.2486" stroke="#8C8C8A" stroke-width="0.88844" stroke-linejoin="bevel"/>
</g>
<path fill-rule="evenodd" clip-rule="evenodd" d="M145.654 373.371C146.308 372.803 146.735 372.057 146.936 371.134H153.4C153.104 373.773 152.031 375.91 150.182 377.546C148.332 379.182 146.054 380 143.351 380C141.379 380 139.604 379.571 138.025 378.713C136.446 377.856 135.214 376.664 134.328 375.138C133.443 373.613 133 371.9 133 370C133 368.1 133.443 366.388 134.328 364.862C135.214 363.336 136.446 362.144 138.025 361.287C139.604 360.428 141.379 360 143.351 360C146.011 360 148.258 360.789 150.09 362.368C151.922 363.947 153.004 366.016 153.335 368.575H146.963C146.693 367.731 146.231 367.052 145.576 366.537C144.922 366.023 144.189 365.765 143.378 365.765C142.261 365.765 141.36 366.154 140.676 366.933C139.99 367.711 139.648 368.733 139.648 369.999C139.648 371.257 139.993 372.276 140.682 373.054C141.372 373.833 142.269 374.221 143.378 374.221C144.241 374.221 145 373.938 145.654 373.371H145.654ZM168.597 368.171C169.852 369.363 170.48 370.904 170.48 372.793C170.48 374.953 169.758 376.695 168.313 378.017C166.867 379.339 164.963 380 162.598 380C160.262 380 158.362 379.337 156.898 378.01C155.434 376.683 154.702 374.963 154.702 372.849C154.702 371.695 154.904 370.533 155.305 369.365C155.706 368.197 156.328 366.918 157.168 365.532L160.14 360.64L166.418 360.639L162.903 366.411C163.254 366.393 163.531 366.383 163.734 366.383C165.72 366.383 167.34 366.979 168.597 368.171H168.597ZM164.358 374.567C164.81 374.111 165.036 373.52 165.036 372.793C165.036 372.068 164.81 371.472 164.358 371.006C163.905 370.54 163.319 370.308 162.599 370.308C161.878 370.308 161.291 370.541 160.84 371.006C160.386 371.472 160.161 372.068 160.161 372.793C160.161 373.52 160.386 374.111 160.839 374.567C161.291 375.023 161.878 375.252 162.598 375.252C163.319 375.252 163.905 375.023 164.357 374.567H164.358ZM182.251 369.133C184.481 369.787 185.89 371.741 185.89 374.267C185.89 375.663 185.404 376.875 184.444 377.871C183.491 378.859 182.295 379.361 180.889 379.361H174.807C174.796 379.361 174.785 379.358 174.775 379.354C174.765 379.35 174.755 379.343 174.747 379.336C174.74 379.328 174.733 379.318 174.729 379.308C174.725 379.298 174.723 379.287 174.723 379.276V360.724C174.723 360.678 174.76 360.639 174.807 360.639H180.164C181.467 360.639 182.541 361.07 183.357 361.921C184.195 362.738 184.623 363.829 184.623 365.16C184.623 366.945 183.728 368.417 182.251 369.133ZM183.934 377.393C184.789 376.531 185.205 375.508 185.205 374.266C185.205 372.886 184.778 371.755 183.937 370.907C183.066 370.029 181.993 369.602 180.656 369.602H175.409V378.669H180.888C182.094 378.669 183.119 378.24 183.934 377.394V377.393ZM175.408 361.331V368.911H180.164C181.277 368.911 182.189 368.559 182.875 367.867C183.58 367.157 183.937 366.246 183.937 365.16C183.937 362.905 182.386 361.331 180.164 361.331H175.409H175.408ZM233.984 379.227C233.993 379.239 233.999 379.254 234 379.269C234.001 379.285 233.998 379.3 233.991 379.314C233.984 379.328 233.973 379.339 233.96 379.347C233.947 379.355 233.931 379.36 233.916 379.36H233.278C233.264 379.36 233.251 379.357 233.238 379.351C233.226 379.344 233.216 379.335 233.208 379.324L226.391 369.687L223.381 373.192V379.275C223.381 379.286 223.379 379.297 223.375 379.308C223.371 379.318 223.364 379.327 223.357 379.335C223.349 379.343 223.34 379.35 223.329 379.354C223.319 379.358 223.308 379.361 223.297 379.361H222.79C222.779 379.361 222.768 379.358 222.757 379.354C222.747 379.35 222.738 379.343 222.73 379.336C222.722 379.328 222.716 379.318 222.712 379.308C222.708 379.298 222.706 379.287 222.706 379.276V360.724C222.706 360.678 222.744 360.639 222.79 360.639H223.297C223.343 360.639 223.381 360.678 223.381 360.724V372.161L233.158 360.669C233.166 360.66 233.176 360.652 233.187 360.647C233.199 360.642 233.211 360.639 233.223 360.639H233.893C233.94 360.639 233.978 360.678 233.978 360.724C233.978 360.745 233.97 360.764 233.958 360.779L226.845 369.139L233.984 379.227ZM218.426 360.639C218.472 360.639 218.51 360.678 218.51 360.724V379.276C218.51 379.287 218.508 379.298 218.504 379.308C218.5 379.318 218.493 379.328 218.486 379.336C218.478 379.343 218.469 379.35 218.458 379.354C218.448 379.358 218.437 379.361 218.426 379.361H218.193C218.179 379.361 218.166 379.358 218.154 379.352C218.142 379.346 218.132 379.337 218.124 379.326L205.853 362.159V379.276C205.853 379.287 205.851 379.298 205.847 379.308C205.843 379.318 205.836 379.328 205.829 379.336C205.821 379.343 205.812 379.35 205.801 379.354C205.791 379.358 205.78 379.361 205.769 379.361H205.252C205.241 379.361 205.23 379.358 205.22 379.354C205.209 379.35 205.2 379.343 205.192 379.336C205.184 379.328 205.178 379.318 205.174 379.308C205.17 379.298 205.168 379.287 205.168 379.276V360.724C205.168 360.678 205.206 360.639 205.252 360.639H205.58C205.593 360.639 205.606 360.643 205.618 360.649C205.63 360.655 205.64 360.664 205.648 360.674L217.824 377.708V360.725C217.824 360.678 217.862 360.64 217.908 360.64H218.426V360.639ZM202.116 379.246C202.121 379.259 202.123 379.272 202.121 379.286C202.12 379.3 202.115 379.313 202.107 379.324C202.099 379.335 202.089 379.345 202.077 379.351C202.064 379.357 202.051 379.361 202.037 379.361H201.5C201.482 379.361 201.465 379.355 201.451 379.345C201.437 379.335 201.426 379.321 201.421 379.304L199.273 373.568H190.517L188.37 379.306C188.364 379.322 188.353 379.336 188.339 379.346C188.325 379.356 188.308 379.361 188.291 379.361H187.753C187.739 379.361 187.725 379.357 187.713 379.351C187.701 379.344 187.69 379.335 187.683 379.323C187.675 379.312 187.67 379.299 187.669 379.285C187.667 379.272 187.669 379.258 187.675 379.245L194.652 360.694C194.658 360.678 194.669 360.664 194.683 360.654C194.697 360.644 194.714 360.639 194.731 360.639H195.058C195.075 360.639 195.092 360.644 195.107 360.654C195.121 360.664 195.132 360.679 195.138 360.695L202.115 379.246H202.116ZM190.769 372.877H199.022L194.896 361.974L190.769 372.877H190.769Z" fill="white"/>
<path d="M28.3703 33.4731C28.3703 32.5436 28.5562 31.729 28.928 31.0292C29.3107 30.3184 29.8355 29.7717 30.5026 29.389C31.1696 29.0063 31.935 28.8149 32.7988 28.8149C33.8923 28.8149 34.7944 29.0773 35.5052 29.6022C36.2268 30.1161 36.7134 30.8542 36.9649 31.8165H34.9475C34.7835 31.3681 34.521 31.0182 34.1602 30.7667C33.7994 30.5152 33.3456 30.3895 32.7988 30.3895C32.0334 30.3895 31.4211 30.6629 30.9618 31.2096C30.5135 31.7454 30.2893 32.4999 30.2893 33.4731C30.2893 34.4462 30.5135 35.2062 30.9618 35.7529C31.4211 36.2997 32.0334 36.573 32.7988 36.573C33.8814 36.573 34.5976 36.0974 34.9475 35.1461H36.9649C36.7025 36.0646 36.2104 36.7972 35.4888 37.3439C34.7671 37.8797 33.8704 38.1476 32.7988 38.1476C31.935 38.1476 31.1696 37.9563 30.5026 37.5735C29.8355 37.1799 29.3107 36.6332 28.928 35.9334C28.5562 35.2226 28.3703 34.4025 28.3703 33.4731ZM38.2051 33.4403C38.2051 32.5327 38.391 31.729 38.7627 31.0292C39.1455 30.3293 39.6594 29.7881 40.3045 29.4054C40.9606 29.0117 41.6823 28.8149 42.4696 28.8149C43.1803 28.8149 43.7981 28.957 44.323 29.2413C44.8588 29.5147 45.2853 29.8592 45.6024 30.2747V28.9625H47.4886V38H45.6024V36.655C45.2853 37.0815 44.8533 37.4369 44.3066 37.7212C43.7599 38.0055 43.1366 38.1476 42.4368 38.1476C41.6604 38.1476 40.9497 37.9508 40.3045 37.5571C39.6594 37.1526 39.1455 36.5949 38.7627 35.8841C38.391 35.1625 38.2051 34.3478 38.2051 33.4403ZM45.6024 33.4731C45.6024 32.8498 45.4711 32.3085 45.2087 31.8493C44.9572 31.39 44.6237 31.0401 44.2082 30.7995C43.7927 30.559 43.3444 30.4387 42.8632 30.4387C42.3821 30.4387 41.9338 30.559 41.5183 30.7995C41.1028 31.0292 40.7638 31.3736 40.5013 31.8329C40.2499 32.2812 40.1241 32.817 40.1241 33.4403C40.1241 34.0635 40.2499 34.6103 40.5013 35.0804C40.7638 35.5506 41.1028 35.9115 41.5183 36.163C41.9447 36.4035 42.393 36.5238 42.8632 36.5238C43.3444 36.5238 43.7927 36.4035 44.2082 36.163C44.6237 35.9224 44.9572 35.5725 45.2087 35.1133C45.4711 34.6431 45.6024 34.0963 45.6024 33.4731ZM51.8144 30.2747C52.0877 29.8154 52.4486 29.46 52.8969 29.2085C53.3561 28.9461 53.8974 28.8149 54.5207 28.8149V30.7503H54.045C53.3124 30.7503 52.7547 30.9362 52.372 31.308C52.0002 31.6798 51.8144 32.3249 51.8144 33.2434V38H49.9445V28.9625H51.8144V30.2747ZM58.1092 30.3075C58.4263 29.8701 58.8583 29.5147 59.405 29.2413C59.9627 28.957 60.5805 28.8149 61.2584 28.8149C62.0567 28.8149 62.7783 29.0063 63.4235 29.389C64.0686 29.7717 64.5771 30.3184 64.9489 31.0292C65.3206 31.729 65.5065 32.5327 65.5065 33.4403C65.5065 34.3478 65.3206 35.1625 64.9489 35.8841C64.5771 36.5949 64.0632 37.1526 63.4071 37.5571C62.7619 37.9508 62.0457 38.1476 61.2584 38.1476C60.5586 38.1476 59.9353 38.0109 59.3886 37.7376C58.8528 37.4642 58.4263 37.1143 58.1092 36.6878V38H56.2394V25.8625H58.1092V30.3075ZM63.6039 33.4403C63.6039 32.817 63.4727 32.2812 63.2103 31.8329C62.9588 31.3736 62.6198 31.0292 62.1933 30.7995C61.7778 30.559 61.3295 30.4387 60.8484 30.4387C60.3782 30.4387 59.9299 30.559 59.5034 30.7995C59.0879 31.0401 58.7489 31.39 58.4865 31.8493C58.235 32.3085 58.1092 32.8498 58.1092 33.4731C58.1092 34.0963 58.235 34.6431 58.4865 35.1133C58.7489 35.5725 59.0879 35.9224 59.5034 36.163C59.9299 36.4035 60.3782 36.5238 60.8484 36.5238C61.3295 36.5238 61.7778 36.4035 62.1933 36.163C62.6198 35.9115 62.9588 35.5506 63.2103 35.0804C63.4727 34.6103 63.6039 34.0635 63.6039 33.4403ZM71.2757 38.1476C70.4228 38.1476 69.6519 37.9563 68.963 37.5735C68.2741 37.1799 67.7328 36.6332 67.3392 35.9334C66.9455 35.2226 66.7487 34.4025 66.7487 33.4731C66.7487 32.5545 66.951 31.7399 67.3556 31.0292C67.7602 30.3184 68.3124 29.7717 69.0122 29.389C69.712 29.0063 70.4938 28.8149 71.3577 28.8149C72.2215 28.8149 73.0033 29.0063 73.7032 29.389C74.403 29.7717 74.9552 30.3184 75.3598 31.0292C75.7643 31.7399 75.9666 32.5545 75.9666 33.4731C75.9666 34.3916 75.7589 35.2062 75.3434 35.917C74.9278 36.6277 74.3592 37.1799 73.6376 37.5735C72.9268 37.9563 72.1395 38.1476 71.2757 38.1476ZM71.2757 36.5238C71.7568 36.5238 72.2051 36.409 72.6206 36.1794C73.0471 35.9498 73.3915 35.6053 73.654 35.1461C73.9164 34.6868 74.0476 34.1291 74.0476 33.4731C74.0476 32.817 73.9219 32.2648 73.6704 31.8165C73.4189 31.3572 73.0854 31.0128 72.6698 30.7831C72.2543 30.5535 71.806 30.4387 71.3249 30.4387C70.8437 30.4387 70.3954 30.5535 69.9799 30.7831C69.5753 31.0128 69.2528 31.3572 69.0122 31.8165C68.7716 32.2648 68.6514 32.817 68.6514 33.4731C68.6514 34.4462 68.8974 35.2007 69.3894 35.7365C69.8924 36.2614 70.5212 36.5238 71.2757 36.5238ZM82.3748 28.8149C83.0856 28.8149 83.7198 28.9625 84.2774 29.2578C84.846 29.553 85.2889 29.9904 85.606 30.5699C85.9231 31.1494 86.0816 31.8493 86.0816 32.6694V38H84.2282V32.9482C84.2282 32.139 84.0259 31.5212 83.6214 31.0948C83.2168 30.6574 82.6646 30.4387 81.9648 30.4387C81.2649 30.4387 80.7073 30.6574 80.2918 31.0948C79.8872 31.5212 79.6849 32.139 79.6849 32.9482V38H77.8151V28.9625H79.6849V29.9958C79.991 29.6241 80.3792 29.3343 80.8494 29.1265C81.3305 28.9188 81.839 28.8149 82.3748 28.8149Z" fill="#A7A7A7"/>
<path d="M32.202 385.472C32.722 385.472 33.186 385.58 33.594 385.796C34.01 386.012 34.334 386.332 34.566 386.756C34.806 387.18 34.926 387.692 34.926 388.292V392.192H33.57V388.496C33.57 387.904 33.422 387.452 33.126 387.14C32.83 386.82 32.426 386.66 31.914 386.66C31.402 386.66 30.994 386.82 30.69 387.14C30.394 387.452 30.246 387.904 30.246 388.496V392.192H28.89V388.496C28.89 387.904 28.742 387.452 28.446 387.14C28.15 386.82 27.746 386.66 27.234 386.66C26.722 386.66 26.314 386.82 26.01 387.14C25.714 387.452 25.566 387.904 25.566 388.496V392.192H24.198V385.58H25.566V386.336C25.79 386.064 26.074 385.852 26.418 385.7C26.762 385.548 27.13 385.472 27.522 385.472C28.05 385.472 28.522 385.584 28.938 385.808C29.354 386.032 29.674 386.356 29.898 386.78C30.098 386.38 30.41 386.064 30.834 385.832C31.258 385.592 31.714 385.472 32.202 385.472ZM36.2107 388.856C36.2107 388.192 36.3467 387.604 36.6187 387.092C36.8987 386.58 37.2747 386.184 37.7467 385.904C38.2267 385.616 38.7547 385.472 39.3307 385.472C39.8507 385.472 40.3027 385.576 40.6867 385.784C41.0787 385.984 41.3907 386.236 41.6227 386.54V385.58H43.0027V392.192H41.6227V391.208C41.3907 391.52 41.0747 391.78 40.6747 391.988C40.2747 392.196 39.8187 392.3 39.3067 392.3C38.7387 392.3 38.2187 392.156 37.7467 391.868C37.2747 391.572 36.8987 391.164 36.6187 390.644C36.3467 390.116 36.2107 389.52 36.2107 388.856ZM41.6227 388.88C41.6227 388.424 41.5267 388.028 41.3347 387.692C41.1507 387.356 40.9067 387.1 40.6027 386.924C40.2987 386.748 39.9707 386.66 39.6187 386.66C39.2667 386.66 38.9387 386.748 38.6347 386.924C38.3307 387.092 38.0827 387.344 37.8907 387.68C37.7067 388.008 37.6147 388.4 37.6147 388.856C37.6147 389.312 37.7067 389.712 37.8907 390.056C38.0827 390.4 38.3307 390.664 38.6347 390.848C38.9467 391.024 39.2747 391.112 39.6187 391.112C39.9707 391.112 40.2987 391.024 40.6027 390.848C40.9067 390.672 41.1507 390.416 41.3347 390.08C41.5267 389.736 41.6227 389.336 41.6227 388.88ZM47.1996 392.3C46.6796 392.3 46.2116 392.208 45.7956 392.024C45.3876 391.832 45.0636 391.576 44.8236 391.256C44.5836 390.928 44.4556 390.564 44.4396 390.164H45.8556C45.8796 390.444 46.0116 390.68 46.2516 390.872C46.4996 391.056 46.8076 391.148 47.1756 391.148C47.5596 391.148 47.8556 391.076 48.0636 390.932C48.2796 390.78 48.3876 390.588 48.3876 390.356C48.3876 390.108 48.2676 389.924 48.0276 389.804C47.7956 389.684 47.4236 389.552 46.9116 389.408C46.4156 389.272 46.0116 389.14 45.6996 389.012C45.3876 388.884 45.1156 388.688 44.8836 388.424C44.6596 388.16 44.5476 387.812 44.5476 387.38C44.5476 387.028 44.6516 386.708 44.8596 386.42C45.0676 386.124 45.3636 385.892 45.7476 385.724C46.1396 385.556 46.5876 385.472 47.0916 385.472C47.8436 385.472 48.4476 385.664 48.9036 386.048C49.3676 386.424 49.6156 386.94 49.6476 387.596H48.2796C48.2556 387.3 48.1356 387.064 47.9196 386.888C47.7036 386.712 47.4116 386.624 47.0436 386.624C46.6836 386.624 46.4076 386.692 46.2156 386.828C46.0236 386.964 45.9276 387.144 45.9276 387.368C45.9276 387.544 45.9916 387.692 46.1196 387.812C46.2476 387.932 46.4036 388.028 46.5876 388.1C46.7716 388.164 47.0436 388.248 47.4036 388.352C47.8836 388.48 48.2756 388.612 48.5796 388.748C48.8916 388.876 49.1596 389.068 49.3836 389.324C49.6076 389.58 49.7236 389.92 49.7316 390.344C49.7316 390.72 49.6276 391.056 49.4196 391.352C49.2116 391.648 48.9156 391.88 48.5316 392.048C48.1556 392.216 47.7116 392.3 47.1996 392.3ZM52.8057 386.696V390.356C52.8057 390.604 52.8617 390.784 52.9737 390.896C53.0937 391 53.2937 391.052 53.5737 391.052H54.4137V392.192H53.3337C52.7177 392.192 52.2457 392.048 51.9177 391.76C51.5897 391.472 51.4257 391.004 51.4257 390.356V386.696H50.6457V385.58H51.4257V383.936H52.8057V385.58H54.4137V386.696H52.8057ZM61.7346 388.724C61.7346 388.972 61.7186 389.196 61.6866 389.396H56.6346C56.6746 389.924 56.8706 390.348 57.2226 390.668C57.5746 390.988 58.0066 391.148 58.5186 391.148C59.2546 391.148 59.7746 390.84 60.0786 390.224H61.5546C61.3546 390.832 60.9906 391.332 60.4626 391.724C59.9426 392.108 59.2946 392.3 58.5186 392.3C57.8866 392.3 57.3186 392.16 56.8146 391.88C56.3186 391.592 55.9266 391.192 55.6386 390.68C55.3586 390.16 55.2186 389.56 55.2186 388.88C55.2186 388.2 55.3546 387.604 55.6266 387.092C55.9066 386.572 56.2946 386.172 56.7906 385.892C57.2946 385.612 57.8706 385.472 58.5186 385.472C59.1426 385.472 59.6986 385.608 60.1866 385.88C60.6746 386.152 61.0546 386.536 61.3266 387.032C61.5986 387.52 61.7346 388.084 61.7346 388.724ZM60.3066 388.292C60.2986 387.788 60.1186 387.384 59.7666 387.08C59.4146 386.776 58.9786 386.624 58.4586 386.624C57.9866 386.624 57.5826 386.776 57.2466 387.08C56.9106 387.376 56.7106 387.78 56.6466 388.292H60.3066ZM64.4488 386.54C64.6488 386.204 64.9128 385.944 65.2408 385.76C65.5768 385.568 65.9728 385.472 66.4288 385.472V386.888H66.0808C65.5448 386.888 65.1368 387.024 64.8568 387.296C64.5848 387.568 64.4488 388.04 64.4488 388.712V392.192H63.0808V385.58H64.4488V386.54ZM67.2303 388.88C67.2303 388.2 67.3663 387.604 67.6383 387.092C67.9183 386.572 68.3023 386.172 68.7903 385.892C69.2783 385.612 69.8383 385.472 70.4703 385.472C71.2703 385.472 71.9303 385.664 72.4503 386.048C72.9783 386.424 73.3343 386.964 73.5183 387.668H72.0423C71.9223 387.34 71.7303 387.084 71.4663 386.9C71.2023 386.716 70.8703 386.624 70.4703 386.624C69.9103 386.624 69.4623 386.824 69.1263 387.224C68.7983 387.616 68.6343 388.168 68.6343 388.88C68.6343 389.592 68.7983 390.148 69.1263 390.548C69.4623 390.948 69.9103 391.148 70.4703 391.148C71.2623 391.148 71.7863 390.8 72.0423 390.104H73.5183C73.3263 390.776 72.9663 391.312 72.4383 391.712C71.9103 392.104 71.2543 392.3 70.4703 392.3C69.8383 392.3 69.2783 392.16 68.7903 391.88C68.3023 391.592 67.9183 391.192 67.6383 390.68C67.3663 390.16 67.2303 389.56 67.2303 388.88ZM74.4256 388.856C74.4256 388.192 74.5616 387.604 74.8336 387.092C75.1136 386.58 75.4896 386.184 75.9616 385.904C76.4416 385.616 76.9696 385.472 77.5456 385.472C78.0656 385.472 78.5176 385.576 78.9016 385.784C79.2936 385.984 79.6056 386.236 79.8376 386.54V385.58H81.2176V392.192H79.8376V391.208C79.6056 391.52 79.2896 391.78 78.8896 391.988C78.4896 392.196 78.0336 392.3 77.5216 392.3C76.9536 392.3 76.4336 392.156 75.9616 391.868C75.4896 391.572 75.1136 391.164 74.8336 390.644C74.5616 390.116 74.4256 389.52 74.4256 388.856ZM79.8376 388.88C79.8376 388.424 79.7416 388.028 79.5496 387.692C79.3656 387.356 79.1216 387.1 78.8176 386.924C78.5136 386.748 78.1856 386.66 77.8336 386.66C77.4816 386.66 77.1536 386.748 76.8496 386.924C76.5456 387.092 76.2976 387.344 76.1056 387.68C75.9216 388.008 75.8296 388.4 75.8296 388.856C75.8296 389.312 75.9216 389.712 76.1056 390.056C76.2976 390.4 76.5456 390.664 76.8496 390.848C77.1616 391.024 77.4896 391.112 77.8336 391.112C78.1856 391.112 78.5136 391.024 78.8176 390.848C79.1216 390.672 79.3656 390.416 79.5496 390.08C79.7416 389.736 79.8376 389.336 79.8376 388.88ZM84.3824 386.54C84.5824 386.204 84.8464 385.944 85.1744 385.76C85.5104 385.568 85.9064 385.472 86.3624 385.472V386.888H86.0144C85.4784 386.888 85.0704 387.024 84.7904 387.296C84.5184 387.568 84.3824 388.04 84.3824 388.712V392.192H83.0144V385.58H84.3824V386.54ZM87.1639 388.856C87.1639 388.192 87.2999 387.604 87.5719 387.092C87.8519 386.58 88.2279 386.184 88.6999 385.904C89.1799 385.616 89.7119 385.472 90.2959 385.472C90.7279 385.472 91.1519 385.568 91.5679 385.76C91.9919 385.944 92.3279 386.192 92.5759 386.504V383.312H93.9559V392.192H92.5759V391.196C92.3519 391.516 92.0399 391.78 91.6399 391.988C91.2479 392.196 90.7959 392.3 90.2839 392.3C89.7079 392.3 89.1799 392.156 88.6999 391.868C88.2279 391.572 87.8519 391.164 87.5719 390.644C87.2999 390.116 87.1639 389.52 87.1639 388.856ZM92.5759 388.88C92.5759 388.424 92.4799 388.028 92.2879 387.692C92.1039 387.356 91.8599 387.1 91.5559 386.924C91.2519 386.748 90.9239 386.66 90.5719 386.66C90.2199 386.66 89.8919 386.748 89.5879 386.924C89.2839 387.092 89.0359 387.344 88.8439 387.68C88.6599 388.008 88.5679 388.4 88.5679 388.856C88.5679 389.312 88.6599 389.712 88.8439 390.056C89.0359 390.4 89.2839 390.664 89.5879 390.848C89.8999 391.024 90.2279 391.112 90.5719 391.112C90.9239 391.112 91.2519 391.024 91.5559 390.848C91.8599 390.672 92.1039 390.416 92.2879 390.08C92.4799 389.736 92.5759 389.336 92.5759 388.88Z" fill="#A7A7A7"/>
<path d="M47.5499 378.73C43.2254 378.73 38.998 377.447 35.4024 375.045C31.8067 372.642 29.0042 369.228 27.3493 365.232C25.6944 361.237 25.2614 356.841 26.1051 352.599C26.9487 348.358 29.0312 344.462 32.089 341.404C35.1469 338.346 39.0429 336.264 43.2842 335.42C47.5256 334.576 51.9219 335.009 55.9172 336.664C59.9125 338.319 63.3273 341.122 65.7299 344.717C68.1324 348.313 69.4148 352.54 69.4148 356.865C69.4088 362.662 67.1032 368.22 63.0041 372.319C58.9049 376.418 53.347 378.724 47.5499 378.73Z" fill="#51504F"/>
<path opacity="0.5" d="M68.8233 378.73C64.4988 378.73 60.2712 377.449 56.6752 375.047C53.0792 372.645 50.2762 369.23 48.6207 365.235C46.9652 361.24 46.5315 356.844 47.3746 352.602C48.2176 348.361 50.2995 344.465 53.3569 341.406C56.4143 338.348 60.3099 336.265 64.5512 335.421C68.7924 334.576 73.1888 335.009 77.1844 336.663C81.1799 338.317 84.5951 341.119 86.9982 344.715C89.4013 348.31 90.6843 352.537 90.6849 356.862V356.865C90.6789 362.661 88.3738 368.219 84.2753 372.318C80.1769 376.417 74.6198 378.723 68.8233 378.73Z" fill="white"/>
</g>
<defs>
<linearGradient id="paint0_linear" x1="159.816" y1="113.589" x2="184.618" y2="152.573" gradientUnits="userSpaceOnUse">
<stop stop-color="#DADADA"/>
<stop offset="1" stop-color="#63615C"/>
</linearGradient>
<clipPath id="clip0">
<rect y="416.883" width="416.883" height="266.532" rx="8.20098" transform="rotate(-90 0 416.883)" fill="white"/>
</clipPath>
</defs>
</svg>
