<svg width="15" height="15" viewBox="0 0 15 15" fill="none" xmlns="http://www.w3.org/2000/svg">
<path d="M7.49937 4.6106C6.7329 4.6106 5.99782 4.91508 5.45584 5.45706C4.91386 5.99904 4.60938 6.73412 4.60938 7.5006C4.60938 8.26707 4.91386 9.00215 5.45584 9.54413C5.99782 10.0861 6.7329 10.3906 7.49937 10.3906C8.26585 10.3906 9.00093 10.0861 9.54291 9.54413C10.0849 9.00215 10.3894 8.26707 10.3894 7.5006C10.3894 6.73412 10.0849 5.99904 9.54291 5.45706C9.00093 4.91508 8.26585 4.6106 7.49937 4.6106ZM7.49937 9.37747C7.00143 9.37747 6.52388 9.17966 6.17178 8.82756C5.81968 8.47546 5.62187 7.99791 5.62187 7.49997C5.62187 7.00203 5.81968 6.52448 6.17178 6.17238C6.52388 5.82028 7.00143 5.62247 7.49937 5.62247C7.99732 5.62247 8.47487 5.82028 8.82697 6.17238C9.17907 6.52448 9.37687 7.00203 9.37687 7.49997C9.37687 7.99791 9.17907 8.47546 8.82697 8.82756C8.47487 9.17966 7.99732 9.37747 7.49937 9.37747Z" fill="white"/>
<path d="M10.5038 5.17807C10.8759 5.17807 11.1775 4.87642 11.1775 4.50432C11.1775 4.13221 10.8759 3.83057 10.5038 3.83057C10.1316 3.83057 9.83 4.13221 9.83 4.50432C9.83 4.87642 10.1316 5.17807 10.5038 5.17807Z" fill="white"/>
<path d="M12.8331 3.81942C12.6884 3.44579 12.4673 3.10648 12.184 2.82321C11.9006 2.53995 11.5612 2.31897 11.1875 2.17442C10.7502 2.01027 10.2882 1.92151 9.82124 1.91192C9.21937 1.88567 9.02874 1.87817 7.50249 1.87817C5.97624 1.87817 5.78062 1.87817 5.18374 1.91192C4.71711 1.92102 4.25547 2.0098 3.81874 2.17442C3.44495 2.3188 3.10547 2.53972 2.82208 2.823C2.53868 3.10629 2.31764 3.44569 2.17312 3.81942C2.00893 4.25668 1.92038 4.7187 1.91124 5.18567C1.88437 5.78692 1.87624 5.97755 1.87624 7.50442C1.87624 9.03067 1.87624 9.22505 1.91124 9.82317C1.92062 10.2907 2.00874 10.7519 2.17312 11.19C2.31804 11.5636 2.5393 11.9029 2.82277 12.1862C3.10623 12.4694 3.44566 12.6904 3.81937 12.835C4.25527 13.0058 4.7171 13.1009 5.18499 13.1163C5.78687 13.1425 5.97749 13.1507 7.50374 13.1507C9.02999 13.1507 9.22562 13.1507 9.82249 13.1163C10.2894 13.1068 10.7514 13.0183 11.1887 12.8544C11.5623 12.7095 11.9016 12.4884 12.185 12.205C12.4683 11.9217 12.6895 11.5824 12.8344 11.2088C12.9987 10.7713 13.0869 10.31 13.0962 9.84255C13.1231 9.2413 13.1312 9.05067 13.1312 7.5238C13.1312 5.99692 13.1312 5.80317 13.0962 5.20505C13.089 4.73147 13 4.2627 12.8331 3.81942ZM12.0719 9.77692C12.0678 10.1371 12.0021 10.4939 11.8775 10.8319C11.7836 11.075 11.6399 11.2957 11.4557 11.4798C11.2714 11.664 11.0506 11.8076 10.8075 11.9013C10.4733 12.0253 10.1202 12.0911 9.76374 12.0957C9.16999 12.1232 9.00249 12.13 7.47999 12.13C5.95624 12.13 5.80062 12.13 5.19562 12.0957C4.83932 12.0913 4.48645 12.0256 4.15249 11.9013C3.90855 11.8082 3.68687 11.6649 3.5018 11.4806C3.31673 11.2964 3.17239 11.0754 3.07812 10.8319C2.95527 10.4976 2.88956 10.1449 2.88374 9.7888C2.85687 9.19505 2.85062 9.02755 2.85062 7.50505C2.85062 5.98192 2.85062 5.8263 2.88374 5.22067C2.88778 4.86069 2.95353 4.50406 3.07812 4.1663C3.26874 3.67317 3.65937 3.28505 4.15249 3.0963C4.48661 2.97264 4.83939 2.9069 5.19562 2.90192C5.78999 2.87505 5.95687 2.86755 7.47999 2.86755C9.00312 2.86755 9.15937 2.86755 9.76374 2.90192C10.1202 2.90621 10.4733 2.97197 10.8075 3.0963C11.0506 3.19022 11.2713 3.33393 11.4556 3.51819C11.6399 3.70246 11.7836 3.92322 11.8775 4.1663C12.0003 4.50064 12.066 4.85327 12.0719 5.20942C12.0987 5.8038 12.1056 5.97067 12.1056 7.4938C12.1056 9.0163 12.1056 9.18005 12.0787 9.77755H12.0719V9.77692Z" fill="white"/>
</svg>
