<svg width="15" height="15" viewBox="0 0 15 15" fill="none" xmlns="http://www.w3.org/2000/svg">
<path d="M12.5 1.875H2.5C2.33424 1.875 2.17527 1.94085 2.05806 2.05806C1.94085 2.17527 1.875 2.33424 1.875 2.5V12.5C1.875 12.6658 1.94085 12.8247 2.05806 12.9419C2.17527 13.0592 2.33424 13.125 2.5 13.125H12.5C12.6658 13.125 12.8247 13.0592 12.9419 12.9419C13.0592 12.8247 13.125 12.6658 13.125 12.5V2.5C13.125 2.33424 13.0592 2.17527 12.9419 2.05806C12.8247 1.94085 12.6658 1.875 12.5 1.875ZM5.21187 11.4606H3.54187V6.09188H5.21187V11.4606ZM4.37687 5.35875C4.12028 5.35875 3.87419 5.25682 3.69275 5.07538C3.51131 4.89393 3.40937 4.64785 3.40937 4.39125C3.40937 4.13465 3.51131 3.88857 3.69275 3.70712C3.87419 3.52568 4.12028 3.42375 4.37687 3.42375C4.63347 3.42375 4.87956 3.52568 5.061 3.70712C5.24244 3.88857 5.34437 4.13465 5.34437 4.39125C5.34437 4.64785 5.24244 4.89393 5.061 5.07538C4.87956 5.25682 4.63347 5.35875 4.37687 5.35875ZM11.4612 11.4606H9.79312V8.85C9.79312 8.2275 9.78188 7.42688 8.92562 7.42688C8.05688 7.42688 7.925 8.10563 7.925 8.80625V11.4612H6.25812V6.0925H7.85812V6.82625H7.88125C8.10312 6.40438 8.64812 5.95937 9.45875 5.95937C11.1488 5.95937 11.4606 7.07062 11.4606 8.51687V11.4606H11.4612Z" fill="white"/>
</svg>
