<svg width="15" height="15" viewBox="0 0 15 15" fill="none" xmlns="http://www.w3.org/2000/svg">
<path d="M12.5 1.875H2.5C2.33424 1.875 2.17527 1.94085 2.05806 2.05806C1.94085 2.17527 1.875 2.33424 1.875 2.5V12.5C1.875 12.6658 1.94085 12.8247 2.05806 12.9419C2.17527 13.0592 2.33424 13.125 2.5 13.125H12.5C12.6658 13.125 12.8247 13.0592 12.9419 12.9419C13.0592 12.8247 13.125 12.6658 13.125 12.5V2.5C13.125 2.33424 13.0592 2.17527 12.9419 2.05806C12.8247 1.94085 12.6658 1.875 12.5 1.875ZM11.2213 4.54062L10.6175 5.11875C10.592 5.1382 10.5723 5.16429 10.5606 5.19416C10.549 5.22403 10.5457 5.25653 10.5513 5.28813V9.53875C10.5457 9.57034 10.549 9.60285 10.5606 9.63272C10.5723 9.66259 10.592 9.68867 10.6175 9.70813L11.2063 10.2869V10.4144H8.24312V10.2869L8.85375 9.69438C8.91438 9.63437 8.91437 9.61625 8.91437 9.525V6.08875L7.21688 10.3988H6.98688L5.01125 6.08875V8.9775C5.00345 9.03753 5.00929 9.09854 5.02833 9.156C5.04738 9.21346 5.07914 9.26589 5.12125 9.30938L5.91563 10.2725V10.3994H3.66313V10.2725L4.4575 9.30938C4.49931 9.2659 4.53036 9.21324 4.54816 9.15561C4.56596 9.09798 4.57001 9.03698 4.56 8.9775V5.6375C4.56467 5.59178 4.55851 5.5456 4.542 5.50271C4.5255 5.45982 4.49912 5.42142 4.465 5.39062L3.75875 4.54062V4.41375H5.95L7.64375 8.12813L9.1325 4.41375H11.2219V4.54062H11.2213Z" fill="white"/>
</svg>
