<svg width="15" height="15" viewBox="0 0 15 15" fill="none" xmlns="http://www.w3.org/2000/svg">
<path d="M13.4956 4.50188C13.4244 4.23776 13.2853 3.99688 13.0921 3.80323C12.8989 3.60959 12.6583 3.46992 12.3944 3.39813C11.4156 3.12938 7.5 3.125 7.5 3.125C7.5 3.125 3.585 3.12063 2.60563 3.3775C2.34183 3.4526 2.10177 3.59424 1.90848 3.78884C1.7152 3.98344 1.57518 4.22446 1.50188 4.48875C1.24375 5.4675 1.24125 7.4975 1.24125 7.4975C1.24125 7.4975 1.23875 9.5375 1.495 10.5063C1.63875 11.0419 2.06063 11.465 2.59688 11.6094C3.58563 11.8781 7.49063 11.8825 7.49063 11.8825C7.49063 11.8825 11.4063 11.8869 12.385 11.6306C12.6491 11.559 12.8898 11.4196 13.0835 11.2264C13.2772 11.0331 13.4171 10.7927 13.4894 10.5288C13.7481 9.55063 13.75 7.52125 13.75 7.52125C13.75 7.52125 13.7625 5.48063 13.4956 4.50188ZM6.2475 9.37813L6.25063 5.62813L9.505 7.50625L6.2475 9.37813Z" fill="white"/>
</svg>
